<svg id="Capa_1" data-name="Capa 1" xmlns="http://www.w3.org/2000/svg" viewBox="0 0 386.57 385.43"><defs>
 <style type="text/css">
        <![CDATA[
        .cls-1 {
            fill:#aeaaaa;
            transition:all 1s;
        
        }
        .cls-1:hover {
            fill:#28303b;
            transition:all 1s;

        }
        ]]>
    </style></defs>
<title>abastecimiento en general</title><path class="cls-1" d="M146.31,267.87l62.86-18.32-1.88-6.47a19.7,19.7,0,0,0-24.44-13.4l-25,7.29a19.71,19.71,0,0,0-13.39,24.45ZM293,365.71a22.74,22.74,0,0,1,16.13,6.69l19.45,19.46a3.12,3.12,0,0,0,4.41,0l21.5-21.52a22.83,22.83,0,0,1,32.21.07l21.45,21.45a3.12,3.12,0,0,0,4.41,0L434.38,370a22.69,22.69,0,0,1,16.07-6.62,23.81,23.81,0,0,1,13.93,4.87,2.92,2.92,0,0,0,4.39-1.15l8.87-19.6a19.72,19.72,0,0,0-9.82-26.09L355.67,270.66a19.72,19.72,0,0,0-26.09,9.83L291.82,363.9a1.27,1.27,0,0,0,1.16,1.8Zm194.45,52.5-34.48-34.49a3.52,3.52,0,0,0-5,0l-35.12,35.13a3.54,3.54,0,0,1-2.5,1,3.5,3.5,0,0,1-2.5-1L373.05,384a3.54,3.54,0,0,0-5,0l-34.78,34.8a3.54,3.54,0,0,1-5,0L295.48,386a3.53,3.53,0,0,0-5,0l-32.8,32.81a3.54,3.54,0,0,1-5,0L219.89,386a3.52,3.52,0,0,0-5,0l-32.81,32.81a3.53,3.53,0,0,1-5,0L144.31,386a3.53,3.53,0,0,0-5,0L107.14,418.2a10.71,10.71,0,0,0-3.14,7.58V614.32H490.57V425.78A10.73,10.73,0,0,0,487.43,418.2ZM140.34,363.41a3.12,3.12,0,0,0,2.92,2.25c3,.07,8.69,1.06,14.69,6.74,3.87,3.66,14.74,14.66,19.43,19.42a3.12,3.12,0,0,0,4.43,0l19.51-19.52a22.81,22.81,0,0,1,32.2.07L253,391.86a3.11,3.11,0,0,0,4.4,0c4.79-4.75,16-15.87,19.79-19.56a2.92,2.92,0,0,0,.76-2.9l-19.55-67a12.21,12.21,0,0,0-15.12-8.29,19.62,19.62,0,0,1-24.32-13.33l-5.31-18.22-64.09,18.7,5.31,18.21a19.61,19.61,0,0,1-13.33,24.32,12.22,12.22,0,0,0-8.31,15.14Z" transform="translate(-104 -228.89)"/></svg>