<svg id="Capa_1" data-name="Capa 1" xmlns="http://www.w3.org/2000/svg" 
viewBox="0 0 407.65 333.53"><defs>
 <style type="text/css">
        <![CDATA[
        .cls-1 {
            fill:#aeaaaa;
            transition:all 1s;
        
        }
        .cls-1:hover {
            fill:#28303b;
            transition:all 1s;

        }
        ]]>
    </style>
</defs><title>articulos de oficina</title><path class="cls-1" d="M495.18,540.54l-98.5-270.62-5.48-15-15,5.45L316,282.24l-15,5.48,5.48,15L405,573.39l5.47,15,15-5.48,60.15-21.87,15-5.48ZM377.6,451.39,329.72,319.84l60.13-21.9,47.9,131.55Zm61.53,75.5a20,20,0,1,1,12-25.62A20,20,0,0,1,439.13,526.89ZM93,268.42v320h96v-320H93Zm48,272a20,20,0,1,1,20-20A20,20,0,0,1,141,540.42Zm32-92H109v-140h64Zm24-180v320h96v-320H197Zm48,272a20,20,0,1,1,20-20A20,20,0,0,1,245,540.42Zm32-92H213v-140h64Z" transform="translate(-93 -254.89)"/></svg>