<svg id="Capa_1" data-name="Capa 1" xmlns="http://www.w3.org/2000/svg" 
viewBox="0 0 331.87 227.36"><defs>
<style type="text/css">
        <![CDATA[
        .cls-1 {
            fill:#aeaaaa;
            transition:all 1s;
        
        }
        .cls-1:hover {
            fill:#28303b;
            transition:all 1s;

        }
        ]]>
    </style>
</defs><title>computo y suministros</title><path class="cls-1" d="M431.76,479.86V320a12.33,12.33,0,0,0-12.3-12.3H173.63a12.33,12.33,0,0,0-12.3,12.3V479.86l-30.72,36.83A18.39,18.39,0,0,0,149,535.1h295a18.39,18.39,0,0,0,18.41-18.41ZM321.13,529H272a3.06,3.06,0,1,1,0-6.12h49.12a3.06,3.06,0,1,1,0,6.12Zm-75.28-12.3,9.38-11.21h82.63l9.38,11.21Zm168.58-58.57a10.75,10.75,0,0,1-10.67,10.74H189.31a10.78,10.78,0,0,1-10.66-10.74V329.49a10.74,10.74,0,0,1,10.66-10.74H403.76a10.75,10.75,0,0,1,10.67,10.74Zm0,0" transform="translate(-130.61 -307.75)"/></svg>