<svg id="Capa_1" data-name="Capa 1" xmlns="http://www.w3.org/2000/svg"
 viewBox="0 0 237.91 353.77"><defs>
 <style type="text/css">
        <![CDATA[
        .cls-1 {
            fill:#aeaaaa;
            transition:all 1s;
        
        }
        .cls-1:hover {
            fill:#28303b;
            transition:all 1s;

        }
        ]]>
    </style>
 </defs><title>electrico e iluminacion</title><path class="cls-1" d="M297,243.89a119,119,0,0,0-62,220.5l3.8,28.07c1.8,13.29,12.81,23.31,25.6,23.31h65.16c12.8,0,23.8-10,25.6-23.31l3.8-28.07a119,119,0,0,0-62-220.5ZM347.6,452.5a8,8,0,0,0-4,5.89l-4.32,31.92c-.72,5.3-5,9.46-9.75,9.46H264.38c-4.75,0-9-4.15-9.75-9.46l-4.32-31.93a8,8,0,0,0-4-5.89,103,103,0,1,1,101.28,0Zm-8.74,72.34h-83.8a8,8,0,0,0,0,16h83.8a8,8,0,0,0,0-16Zm-10.14,25.07H265.2a8,8,0,0,0-8,8,39.75,39.75,0,0,0,79.51,0A8,8,0,0,0,328.71,549.91ZM297,581.66a23.79,23.79,0,0,1-22.37-15.75h44.73A23.79,23.79,0,0,1,297,581.66Zm50.66-214.91c0-.15,0-.29-.05-.43s0-.24-.07-.36-.05-.26-.08-.38-.07-.27-.12-.39-.07-.23-.11-.34l-.16-.4c0-.11-.09-.21-.14-.32s-.12-.25-.19-.37l-.19-.34-.2-.31-.26-.36-.09-.13-.12-.14-.31-.35-.23-.24-.32-.31-.27-.23-.32-.25-.32-.22-.33-.21-.36-.2-.32-.16-.4-.18-.32-.12-.43-.14-.18-.06-.16,0-.42-.09-.38-.07-.37,0-.43,0h-.78l-.33,0-.44.05-.35.07-.39.09-.38.11L337,360l-.39.16-.33.14-.36.18-.34.19-.3.2-.37.26-.12.09L318.31,374.1l-16.43-12.86a8,8,0,0,0-9.86,0L275.6,374.1l-16.42-12.85-.13-.09-.36-.26-.31-.2-.34-.19-.37-.19-.32-.14-.4-.16-.34-.11-.39-.12-.38-.08-.36-.07-.43-.05-.33,0h-.78l-.43,0-.37,0-.37.07-.43.09-.16,0-.18.06-.43.14-.33.12-.39.18-.33.16-.36.2-.33.2-.31.22-.32.25-.28.23-.32.3-.24.25-.3.34-.12.14-.09.13-.25.36-.2.32-.19.33c-.07.12-.13.25-.19.37l-.14.31c-.05.13-.11.27-.16.41s-.08.22-.11.33-.08.27-.12.4-.06.25-.08.38-.05.25-.07.37,0,.28-.05.43,0,.22,0,.33,0,.3,0,.45,0,.22,0,.34,0,.28,0,.42,0,.25,0,.37,0,.25.07.38.05.28.09.42,0,.11,0,.16l30.79,115.15a8,8,0,1,0,15.46-4.13l-24.61-92,2.52,2a8,8,0,0,0,9.86,0L297,377.7l16.43,12.86a8,8,0,0,0,9.86,0l2.52-2-24.61,92a8,8,0,1,0,15.46,4.14l30.79-115.16c0-.05,0-.11,0-.16s.06-.28.09-.43,0-.25.07-.37,0-.25,0-.37,0-.28,0-.42,0-.22,0-.33,0-.3,0-.45S347.63,366.86,347.62,366.75Z" transform="translate(-178 -243.89)"/></svg>