<svg id="Capa_1" data-name="Capa 1" xmlns="http://www.w3.org/2000/svg" viewBox="0 0 368.18 600">
<defs> <style type="text/css">
        <![CDATA[
        .cls-1 {
            fill:#aeaaaa;
            transition:all 1s;
        
        }
        .cls-1:hover {
            fill:#28303b;
            transition:all 1s;

        }
        ]]>
    </style></defs><title>equipos de limpieza (1)</title><path class="cls-1" d="M336.45,313.36H257.73C175,348.85,113,489.73,113,600.76c0,128,82.42,121.07,184.09,121.07s184.09,7,184.09-121.07C481.18,489.73,419.21,348.85,336.45,313.36ZM227.73,659.46s-47.92,3.53-65-38.55c2.7-8.75,7.39-17.38,7.59-26.86.22-10.42-6.3-19.56-9.93-29-1.23-3.21-2.2-7.17,0-9.84,3.43-3.59,8.08-6.6,11-10.54,8.9-9.22,12-21.73,7.09-33.77-4-9.86-10.83-17.71-1.89-26.94,2-2.05,4.14-4,6.23-5.9,4.84-4.53,9.61-9.73,12.32-15.84,4-9,4.08-18.34.17-26.26,9-15.55,19.73-29.21,32.45-39.46ZM472.32,179.61V139.45a17.56,17.56,0,0,0-17.56-17.56H432.69v75.27h22.07A17.56,17.56,0,0,0,472.32,179.61ZM381.38,230c-5.85,6-11,13.84-15.37,23.45-1.57,3.46-2.94,6.95-4.14,10.36-.36,1.66-.48,2.63-.48,2.63,8.48,0,35,9.54,51.95,46.65s54.6,29.16,30.75,5.3-36-100.72-36-100.72A54.93,54.93,0,0,0,381.38,230ZM188.24,197.69c20.7,4.74,59.33,23.57,59.33,98.07h89.06s8.48-97.53,78.45-97.53V121.89h-123c-21.86,0-67.93,9.31-108.54,62.84A8.2,8.2,0,0,0,188.24,197.69Z" transform="translate(-113 -121.89)"/></svg>