<svg id="Capa_1" data-name="Capa 1" xmlns="http://www.w3.org/2000/svg" viewBox="0 0 330.33 331.84"><defs>
  <style type="text/css">
        <![CDATA[
        .cls-1 {
            fill:#aeaaaa;
            transition:all 1s;
        
        }
        .cls-1:hover {
            fill:#28303b;
            transition:all 1s;

        }
        ]]>
    </style></defs>
<title>ferreteria industrial</title><path class="cls-1" d="M435.61,525.35c-6.54-9.89-16.85-19-23.07-20.32l-11.22-2.33-50.47-50.43L332.5,470.62l50.4,50.46,2.38,11.22c1.33,6.23,10.42,16.54,20.31,23.07L431,572.12c9.89,6.54,19.64,10.09,21.74,8s3.77-3.82,3.77-3.82l3.81-3.8c2.1-2.11-1.47-11.86-8-21.74ZM227.69,401.55c.21.21.42.35.62.56l12.37-12.41-88.43-88.43a5.47,5.47,0,1,1,7.76-7.72L248.41,382l13.81-13.81-88.43-88.43a5.46,5.46,0,0,1,7.7-7.76L270,360.49l12.38-12.41c-.21-.21-.35-.45-.53-.66L272,337.6l-74.51-74.49a38.27,38.27,0,0,0-54.14,54.11ZM397.05,406a77.17,77.17,0,0,0,65.18-82.23c-.91-11.82-11.36-14.12-19.75-5.74L413.2,347.34a17.46,17.46,0,0,1-24.75,0l-19-18.94a17.64,17.64,0,0,1,0-24.88l30.27-30.23c8.42-8.38,6.29-19.22-5.49-20.62a77.38,77.38,0,0,0-86.33,69.91,79.22,79.22,0,0,0,.94,21.11L146.32,506.23a45.42,45.42,0,1,0,64.21,64.25S327.36,453.63,374.69,406.27A75.7,75.7,0,0,0,397.05,406ZM193.79,556.48a23.67,23.67,0,1,1,0-33.45A23.67,23.67,0,0,1,193.79,556.48Z" transform="translate(-132.13 -251.9)"/></svg>