<svg id="Capa_1" data-name="Capa 1" xmlns="http://www.w3.org/2000/svg" viewBox="0 0 297.74 224.79">
<defs><style type="text/css">
        <![CDATA[
        .cls-1 {
            fill:#aeaaaa;
            transition:all 1s;
        
        }
        .cls-1:hover {
            fill:#28303b;
            transition:all 1s;

        }
        ]]>
    </style></defs><title>materiales de contruccion</title><path class="cls-1" d="M419,388a10.43,10.43,0,0,0-8.15,12.27l16.26,80.62a10.45,10.45,0,0,0,10.21,8.35,10.22,10.22,0,0,0,7.89-3.67l-16.37-94.27A10.41,10.41,0,0,0,419,388ZM304.57,335.28c10.11-3.25,19.38-1.85,28,4.31,7.12,5.09,13.13,9.21,22.2,9.3,7.73.08,16.71-1.62,22.54-7.14,6-5.69,8.82-16.75,1.42-22.71-3.75-3-8.37-4.59-12.21-7.42l0,0H291.88a43,43,0,0,0-9.58,1.12c-4.29,5.66-6.93,14.17-4.17,20.88C282.79,344.88,296.58,337.87,304.57,335.28ZM446,490.73a14.65,14.65,0,0,1-5.69,2.52,15.42,15.42,0,0,1-2.92.28A14.73,14.73,0,0,1,423,481.72L406.7,401.1a14.73,14.73,0,0,1,11.51-17.33,15.23,15.23,0,0,1,2.92-.3,14.5,14.5,0,0,1,6.69,1.68l-2.5-14.39c0-.75.12-1.47.12-2.26v-1.07c0-81-19.23-55.85-43-55.85H374.9c7,4.06,13.07,8.84,12.49,18.14-1.14,18.17-21.23,25-36.9,23.13A30.1,30.1,0,0,1,339,349.3c-5-3-9.27-7.34-14.67-9.68-13.74-6-24.63,5.52-38.16,4.44-15.33-1.26-15.12-18.22-9.72-29.57a43,43,0,0,0-25.34,27l-86,.24-16.77,9.13L164,360.44l85.4,1.12a42.92,42.92,0,0,0,42.47,37H348.3c4.53,5.17,31.81,39,20.3,91-12.54,56.64,16.57,42.56,38.67,38.67C436,520.13,447.22,512.18,446,490.73ZM164.92,357.26l-5.57-3.44,7.35-9,9.27,0-10.22,12.43Zm8.53.11,10.31-12.55,9.27,0L182.59,357.5Zm19.3.25,10.57-12.87,9.27,0-10.69,13Zm18.42.25L222,344.71l9.27,0L220.32,358Zm38.88-13-11,13.32-9.15-.11,11-13.46,9.13,0C250.11,344.73,250.06,344.82,250,344.91Zm85.34,59.41s12.17,12.54,12.17,23.28l11.82-1.79-11.11-21.49Z" transform="translate(-148.34 -307.89)"/></svg>