<svg xmlns="http://www.w3.org/2000/svg" data-name="Capa 1" viewBox="0 0 430.1 431"><defs>
<style>.cls-1{fill:#78ab3a;}</style></defs><title>pintura y acabados</title>
 <style type="text/css">
        <![CDATA[
        .cls-1 {
            fill:#aeaaaa;
            transition:all 1s;
        
        }
        .cls-1:hover {
            fill:#28303b;
            transition:all 1s;

        }
        ]]>
    </style>
<path class="cls-1" d="M492.6 273.7c-0.3 0-1.7-0.7-2-0.7H485.2V229.3c0-12.4-11.4-23.5-23.9-23.5H103.5c-12.8 0-21.5 10.8-21.5 23.6v92.5c0 12.5 8.7 21.9 21.5 21.9H461.3c12.4 0 23.9-9.4 23.9-21.9V286.5h4.7c4.4 3.4 8.7 6.4 8.7 10.8v53.8c0 5.7-5.7 9.1-11.4 9.1H299.4c-13.1 0-22.5 11.4-22.5 24.6v9.4H233.2a3.6 3.6 0 0 0-3.4 3 3.9 3.9 0 0 0 2.4 4c3.7 2 14.5 9.1 14.5 15.1V617.2c0 11.1 8.1 19.5 19.2 19.5h33.6c11.1 0 21.2-8.4 21.2-19.5V416c0-6 9.8-13.1 13.4-14.8 1.3-0.7 1.7-2.7 1.3-4s-2-3-3.4-3H290.3v-9.1c0-5.7 3.7-11.1 9.1-11.1H487.2c13.1 0 24.9-9.8 24.9-22.5V297.6c0-11.4-8.7-21.5-19.5-23.9ZM103.5 219.2H461.3c5 0 10.4 4.7 10.4 10.1v18.8c-10.1-7.1-18.1-10.8-29.2-10.8a42.4 42.4 0 0 0-42.3 42.4 31.8 31.8 0 0 1-31.6 31.6c-17.8 0-31.2-14.8-31.2-32.6v-3.4a35.3 35.3 0 1 0-70.6 0v3.4a15.1 15.1 0 1 1-30.2 0v-5.4a23.5 23.5 0 1 0-47 0v3.7a30.2 30.2 0 1 1-60.5 0V273.7a23.4 23.4 0 0 0-23.5-23.5 26 26 0 0 0-10.1 2.4V229.3c0-5.4 2.7-10.1 8.1-10.1Zm0 0" transform="translate(-82 -205.74)"/></svg>