<svg xmlns="http://www.w3.org/2000/svg" data-name="Capa 1" viewBox="0 0 364 249.3">
<defs> <style type="text/css">
        <![CDATA[
        .cls-1 {
            fill:#aeaaaa;
            transition:all 1s;
        
        }
        .cls-1:hover {
            fill:#28303b;
            transition:all 1s;

        }
        ]]>
    </style></defs><title>seguridad industrial</title>
<path class="cls-1" d="M138.7 472.5s7.8 1.6 20.5 3.8l0.2-33.8a4.1 4.1 0 0 1 4.8-4.3L191 442.5a5.9 5.9 0 0 1 4.7 5.8l-0.2 34c10 1.5 20.9 3.1 32.1 4.6l0.2-33.5a4.1 4.1 0 0 1 4.8-4.3l26.8 4.3a5.9 5.9 0 0 1 4.7 5.8L264 491c30.9 2.8 60.9 3.8 81 0.2 2.6-0.5 1.4-33.7-30.1-79-5.5-7.9 41.4-1.3 50.9 73.3 34.1-13 59.5-44.2 55-69.5-10.8-61.2-50-101.5-111-114.1-108.4-22.4-185.1 32.3-194.4 137.8-1.7 19.2 3.1 28.9 23.4 32.8Zm0 0M440.6 435.2c-25.6 57.4-73.5 72.7-127.4 72.7-51.2 0-158.7-19.5-179.4-24.3s-22-1.7-13.2 3.4c54.7 31.5 191.9 65.1 284.1 58.4 36.8-2.7 60-31.5 72.8-64.5 9.9-25.4-31.6-56.8-37-45.7Zm0 0" transform="translate(-115 -296.89)"/></svg>