<svg id="Capa_1" data-name="Capa 1" xmlns="http://www.w3.org/2000/svg" viewBox="0 0 167.56 241.5"><defs><style>.cls-1{fill:#fcd347;}.cls-2{fill:#eb9343;}.cls-3{fill:none;}.cls-4{fill:#f7b815;}</style></defs><title>INGENIERO FINAL</title><polygon class="cls-1" points="102.43 18.67 92.43 14.33 86.86 5.67 72.43 5.67 68.77 12.17 53.1 18.67 43.77 32.33 39.1 43.67 39.1 52.67 46.43 63.67 70.77 71.67 90.77 71.67 118.43 62.33 123.77 51 120.43 37 110.77 22 102.43 18.67"/><polygon class="cls-2" points="118.77 60 104.77 66.67 81.43 73.67 60.77 69 39.1 62.33 41.1 87 46.77 106.67 62.43 124.33 83.43 128 101.77 125 110.77 107.67 118.77 86.33 123.77 69.67 118.77 60"/><rect class="cls-3" x="6.15" width="161.41" height="241.5"/><path d="M314,340.5c-2-39.49-18.53-60-45.51-79.5l.83-7.52-12,4c12.17-9.33,18.83-28.5,18.83-28.5,4,3.83,10-1.83,10-1.83,2.79-3.39,4.58-8.22,5.49-13.54,1.79-10.39-1.46-15.93-7.49-17.78,0,0-.18-7.77-.2-8.29-.69-21.47-15.56-39.38-35.75-45.13v-8.6H220.55v8.62c-20.67,5.88-34.9,24.5-35.82,46.64-.07,1.73-.24,6.84-.24,6.84-5.76,2-9.12,7.56-7.39,17.68.9,5.27,2.65,10.09,5.44,13.49l.26.05s6,5.66,10,1.83c0,0,7.17,17.83,19.83,27.67l-14.26-6.5.37,8.09c-25.25,17-42,42.91-44,82.25-.46,9.05,5.61,16.81,13.59,17.34l15.61.8c9.51,10.81,29.11,15,50.79,15,23,0,41-5,50.12-15l15.58-.8C308.39,357.32,314.47,349.55,314,340.5ZM229.85,143.13h9.05v20.63h-9.05Zm-9.29,9v20.92H248.2V152.14a39.76,39.76,0,0,1,25.74,29.24c-2.89.44-6.46.92-10.52,1.36a266.54,266.54,0,0,1-29.05,1.66,267.83,267.83,0,0,1-29.18-1.67c-4-.44-7.54-.92-10.39-1.35A39.8,39.8,0,0,1,220.55,152.13ZM264.63,192c-7.85,4.71-18.57,9.4-30.26,9.4s-22.31-4.68-30.18-9.38a278.87,278.87,0,0,0,30.18,1.71A276.29,276.29,0,0,0,264.63,192ZM224.41,359c-14.2-1.15-25.12-4.74-29.73-9.8-1.05-1.15-4.25-4.54-4.25-4.54v-14.8a3.59,3.59,0,0,0-7.18,0v14.42l-13.58-.7a3.37,3.37,0,0,1-.62-2.32c1.83-35.57,11.95-61,33.7-72.24l3.83,31.43,15.88-8.55c-1.17,5.93,2.68,10.78,6.77,12.77Zm-14.08-68.78L208,264l23.83,14.55Zm24-37.06c-19.52,0-34-19.45-35.68-47a41.06,41.06,0,0,1,.12-6.57c9.57,5.05,34.45,22.94,71,.09a52.46,52.46,0,0,1-.52,13.19C265.62,236.19,252.76,253.13,234.37,253.13ZM260.75,264l-2.33,26.18-21.61-11.62Zm38.32,79.54-13.58.7V329.84a3.58,3.58,0,1,0-7.17,0v14.78L274.22,349c-4.87,5.29-15.7,8.87-29.89,10l-4.81-54.33a12.24,12.24,0,0,0,6.95-11,12.08,12.08,0,0,0-.18-1.76l17,8.87,3.5-29.5c24.5,16.25,31.1,34.4,32.94,70A3.4,3.4,0,0,1,299.07,343.56Z" transform="translate(-154.71 -133)"/><path d="M251.12,312a2,2,0,0,0,1.33.49c.37,0,.6-.13.6-.3s-.31-.26-.71-.33c-.69-.12-1.65-.29-1.65-1.2,0-.62.6-1.17,1.66-1.17a2.77,2.77,0,0,1,1.7.51l-.59.68a2.14,2.14,0,0,0-1.22-.38c-.31,0-.45.11-.45.27s.32.24.72.32c.69.13,1.64.31,1.64,1.18s-.62,1.23-1.74,1.23a2.76,2.76,0,0,1-1.85-.59Z" transform="translate(-154.71 -133)"/><path d="M254.64,309.5h1.1v2.16c0,.44.29.75.88.75s.88-.32.88-.75V309.5h1.09v2.19c0,.92-.63,1.56-2,1.56s-2-.65-2-1.56Z" transform="translate(-154.71 -133)"/><path d="M261.39,309.44a2,2,0,0,1,1.78.9l-.9.42a1.06,1.06,0,0,0-.88-.47,1.07,1.07,0,1,0,0,2.13,1.45,1.45,0,0,0,.77-.22v-.29h-.94v-.83h2v1.46a2.56,2.56,0,0,1-1.85.72,1.93,1.93,0,1,1,0-3.81" transform="translate(-154.71 -133)"/><polygon points="109.15 176.5 112.22 176.5 112.22 177.33 110.23 177.33 110.23 177.91 112.17 177.91 112.17 178.74 110.23 178.74 110.23 179.36 112.22 179.36 112.22 180.19 109.15 180.19 109.15 176.5"/><rect x="112.84" y="176.5" width="1.08" height="3.69"/><polygon points="115.75 178.06 115.75 180.19 114.67 180.19 114.67 176.5 115.78 176.5 117.47 178.53 117.47 176.5 118.55 176.5 118.55 180.19 117.51 180.19 115.75 178.06"/><path d="M274.28,312a2,2,0,0,0,1.33.49c.37,0,.6-.13.6-.3s-.31-.26-.71-.33c-.69-.12-1.65-.29-1.65-1.2,0-.62.6-1.17,1.67-1.17a2.76,2.76,0,0,1,1.7.51l-.59.68a2.14,2.14,0,0,0-1.22-.38c-.31,0-.45.11-.45.27s.32.24.72.32c.69.13,1.64.31,1.64,1.18s-.62,1.23-1.74,1.23a2.76,2.76,0,0,1-1.85-.59Z" transform="translate(-154.71 -133)"/><path d="M280.41,312.66h-1.65l-.21.53h-1.22l1.57-3.69h1.35l1.58,3.69h-1.22Zm-1.36-.83h1.06l-.53-1.39Z" transform="translate(-154.71 -133)"/><path class="cls-4" d="M281.84,313.75H252.21a2.43,2.43,0,0,1-2.27-2.36,2.46,2.46,0,0,1,2.53-2.37,2.68,2.68,0,0,1,1.26.32l.72-1h0a3.86,3.86,0,0,0-1-.39.11.11,0,0,1-.1-.1l-.21-1.2h-1.26l-.21,1.21a.11.11,0,0,1-.1.1,3.72,3.72,0,0,0-1,.4.08.08,0,0,1-.1,0l-1-.68a.09.09,0,0,0-.14,0l-.76.72c-.05,0-.05.08,0,.13l.72.94s0,.05,0,.09a3.25,3.25,0,0,0-.42.95.12.12,0,0,1-.11.1l-1.28.2V312l1.28.2a.12.12,0,0,1,.11.1,3.38,3.38,0,0,0,.42.95.09.09,0,0,1,0,.08l-.72.94c0,.06,0,.09,0,.14l.76.71a.09.09,0,0,0,.14,0l1-.66h31.44v-.72Z" transform="translate(-154.71 -133)"/><path d="M250.67,315.82a.57.57,0,0,0,.24.06c.1,0,.15,0,.15-.11s0-.1-.16-.14-.27-.15-.27-.29.14-.29.37-.29a.61.61,0,0,1,.25,0l0,.18a.46.46,0,0,0-.2,0c-.1,0-.14,0-.14.09s.05.09.18.14.25.15.25.29-.13.3-.39.3a.63.63,0,0,1-.28-.06Z" transform="translate(-154.71 -133)"/><path d="M251.76,315.07v.56c0,.17.06.25.18.25s.18-.08.18-.25v-.56h.22v.55c0,.3-.15.45-.41.45s-.39-.14-.39-.45v-.55Z" transform="translate(-154.71 -133)"/><path d="M253.45,315.67c0-.12,0-.26,0-.4h0c0,.13-.07.26-.11.38l-.12.38H253l-.1-.38c0-.11-.07-.25-.09-.38h0c0,.13,0,.28,0,.4l0,.37h-.21l.06-1H253l.1.33c0,.11.06.23.08.35h0c0-.11.06-.24.09-.35l.1-.33h.29l.05,1h-.22Z" transform="translate(-154.71 -133)"/><path d="M254.17,315.07v1h-.22v-1Z" transform="translate(-154.71 -133)"/><path d="M254.46,316v-1h.26l.2.36a2.94,2.94,0,0,1,.16.33h0a3.74,3.74,0,0,1,0-.41v-.29h.2v1H255l-.21-.38a3.35,3.35,0,0,1-.17-.35h0c0,.13,0,.27,0,.43V316h-.21Z" transform="translate(-154.71 -133)"/><path d="M255.78,315.07v1h-.22v-1Z" transform="translate(-154.71 -133)"/><path d="M256.07,315.82a.57.57,0,0,0,.24.06c.1,0,.15,0,.15-.11s0-.1-.16-.14-.27-.15-.27-.29.14-.29.37-.29a.61.61,0,0,1,.25,0l0,.18a.46.46,0,0,0-.2,0c-.1,0-.14,0-.14.09s.05.09.18.14.25.15.25.29-.13.3-.39.3A.63.63,0,0,1,256,316Z" transform="translate(-154.71 -133)"/><path d="M257.13,315.26h-.26v-.19h.75v.19h-.27V316h-.22v-.79Z" transform="translate(-154.71 -133)"/><path d="M257.83,315.08l.29,0a.5.5,0,0,1,.32.08.25.25,0,0,1,.09.2.26.26,0,0,1-.17.24h0a.25.25,0,0,1,.13.18,2.69,2.69,0,0,0,.08.27h-.23a1.2,1.2,0,0,1-.07-.23c0-.12-.07-.15-.16-.16h-.07V316h-.22v-1Zm.22.42h.09c.11,0,.18-.05.18-.14s-.06-.14-.16-.14h-.1Z" transform="translate(-154.71 -133)"/><path d="M259.69,315.55a.47.47,0,0,1-.48.52.46.46,0,0,1-.46-.5.47.47,0,0,1,.48-.51A.46.46,0,0,1,259.69,315.55Zm-.71,0c0,.19.09.33.24.33s.23-.14.23-.33-.08-.33-.24-.33S259,315.37,259,315.56Z" transform="translate(-154.71 -133)"/><path d="M259.94,315.82a.57.57,0,0,0,.24.06c.1,0,.15,0,.15-.11s0-.1-.16-.14-.27-.15-.27-.29.14-.29.37-.29a.61.61,0,0,1,.25,0l0,.18a.46.46,0,0,0-.2,0c-.1,0-.14,0-.14.09s.05.09.18.14.25.15.25.29-.13.3-.39.3a.63.63,0,0,1-.28-.06Z" transform="translate(-154.71 -133)"/><path d="M262,316a1.1,1.1,0,0,1-.33.05.54.54,0,0,1-.4-.13.47.47,0,0,1-.14-.36.5.5,0,0,1,.56-.51.68.68,0,0,1,.27,0l0,.18a.55.55,0,0,0-.23,0,.32.32,0,0,0,0,.64l.11,0v-.2h-.15v-.17H262V316Z" transform="translate(-154.71 -133)"/><path d="M262.86,315.63h-.36v.23h.4V316h-.62v-1h.6v.18h-.38v.2h.36Z" transform="translate(-154.71 -133)"/><path d="M263.15,316v-1h.26l.2.36a2.94,2.94,0,0,1,.16.33h0a3.74,3.74,0,0,1,0-.41v-.29h.2v1h-.23l-.21-.38a3.34,3.34,0,0,1-.17-.35h0c0,.13,0,.27,0,.43V316h-.2Z" transform="translate(-154.71 -133)"/><path d="M264.83,315.63h-.36v.23h.4V316h-.62v-1h.6v.18h-.38v.2h.36Z" transform="translate(-154.71 -133)"/><path d="M265.12,315.08l.29,0a.5.5,0,0,1,.32.08.25.25,0,0,1,.09.2.26.26,0,0,1-.17.24h0a.25.25,0,0,1,.13.18,2.69,2.69,0,0,0,.08.27h-.23a1.2,1.2,0,0,1-.07-.23c0-.12-.07-.15-.16-.16h-.07V316h-.22v-1Zm.22.42h.09c.11,0,.18-.05.18-.14s-.06-.14-.16-.14h-.1Z" transform="translate(-154.71 -133)"/><path d="M266.31,315.8l-.07.25H266l.3-1h.29l.3,1h-.24l-.08-.25Zm.25-.16-.06-.21c0-.06,0-.13,0-.19h0c0,.06,0,.13,0,.19l-.06.21Z" transform="translate(-154.71 -133)"/><path d="M267.13,315.07h.22v.79h.39V316h-.61v-1Z" transform="translate(-154.71 -133)"/><path d="M268.55,315.63h-.36v.23h.4V316H268v-1h.6v.18h-.38v.2h.36Z" transform="translate(-154.71 -133)"/><path d="M268.84,315.82a.57.57,0,0,0,.24.06c.1,0,.15,0,.15-.11s0-.1-.16-.14-.27-.15-.27-.29.14-.29.37-.29a.6.6,0,0,1,.25,0l0,.18a.46.46,0,0,0-.2,0c-.1,0-.14,0-.14.09s.05.09.18.14.25.15.25.29-.13.3-.39.3a.63.63,0,0,1-.28-.06Z" transform="translate(-154.71 -133)"/><path d="M270.68,315.63h-.36v.23h.4V316h-.62v-1h.6v.18h-.38v.2h.36Z" transform="translate(-154.71 -133)"/><path d="M271.58,315.07v1h-.22v-1Z" transform="translate(-154.71 -133)"/><path d="M271.87,316v-1h.26l.2.36a2.94,2.94,0,0,1,.16.33h0a3.74,3.74,0,0,1,0-.41v-.29h.2v1h-.23l-.21-.38a3.34,3.34,0,0,1-.17-.35h0c0,.13,0,.27,0,.43V316h-.2Z" transform="translate(-154.71 -133)"/><path d="M273,315.08l.3,0a.63.63,0,0,1,.4.1.43.43,0,0,1,.17.37.5.5,0,0,1-.16.4.7.7,0,0,1-.45.13l-.25,0v-1Zm.22.8h.08a.3.3,0,0,0,.33-.34.28.28,0,0,0-.31-.31h-.1v.64Z" transform="translate(-154.71 -133)"/><path d="M274.29,315.07v.56c0,.17.06.25.18.25s.18-.08.18-.25v-.56h.22v.55c0,.3-.15.45-.41.45s-.39-.14-.39-.45v-.55Z" transform="translate(-154.71 -133)"/><path d="M275.17,315.82a.57.57,0,0,0,.24.06c.1,0,.15,0,.15-.11s0-.1-.16-.14-.27-.15-.27-.29.14-.29.37-.29a.61.61,0,0,1,.25,0l0,.18a.46.46,0,0,0-.2,0c-.1,0-.14,0-.14.09s.05.09.18.14.25.15.25.29-.13.3-.39.3a.63.63,0,0,1-.28-.06Z" transform="translate(-154.71 -133)"/><path d="M276.23,315.26H276v-.19h.75v.19h-.27V316h-.22v-.79Z" transform="translate(-154.71 -133)"/><path d="M276.93,315.08l.29,0a.5.5,0,0,1,.32.08.25.25,0,0,1,.09.2.26.26,0,0,1-.17.24h0a.25.25,0,0,1,.13.18,2.69,2.69,0,0,0,.08.27h-.23a1.2,1.2,0,0,1-.07-.23c0-.12-.07-.15-.16-.16h-.07V316h-.22v-1Zm.22.42h.09c.11,0,.18-.05.18-.14s-.06-.14-.16-.14h-.1Z" transform="translate(-154.71 -133)"/><path d="M278.11,315.07v1h-.22v-1Z" transform="translate(-154.71 -133)"/><path d="M278.62,315.8l-.07.25h-.23l.3-1h.29l.3,1H279l-.08-.25Zm.25-.16-.06-.21c0-.06,0-.13,0-.19h0c0,.06,0,.13,0,.19l-.06.21Z" transform="translate(-154.71 -133)"/><path d="M279.44,315.07h.22v.79h.39V316h-.61v-1Z" transform="translate(-154.71 -133)"/><path d="M280.86,315.63h-.36v.23h.4V316h-.62v-1h.6v.18h-.38v.2h.36Z" transform="translate(-154.71 -133)"/><path d="M281.16,315.82a.57.57,0,0,0,.24.06c.1,0,.15,0,.15-.11s0-.1-.16-.14-.27-.15-.27-.29.14-.29.37-.29a.6.6,0,0,1,.25,0l0,.18a.46.46,0,0,0-.2,0c-.1,0-.14,0-.14.09s.05.09.18.14.25.15.25.29-.13.3-.39.3a.63.63,0,0,1-.28-.06Z" transform="translate(-154.71 -133)"/></svg>