<svg id="Capa_1" data-name="Capa 1" xmlns="http://www.w3.org/2000/svg" viewBox="0 0 363.56 99.58"><defs><style>.cls-1{fill:#fff;}.cls-2{fill:#fffdfb;}.cls-3{fill:#f7b815;}
     <![CDATA[
		 #Capa_1{

		 height:100px;

		 }
        #amarillo,.fadein {

	-webkit-animation:fadein 1s;
			animation:fadein 1s;

  }
         #S,.fadein {

	-webkit-animation:fadein 1.5s;
			animation:fadein 1.5s;

  }

       #U,.fadein {

	-webkit-animation:fadein 2s;
			animation:fadein 2s;

  }

      #U,.fadein {

	-webkit-animation:fadein 2.5s;
			animation:fadein 2.5s;

  }
  
      #G,.fadein {

	-webkit-animation:fadein 3s;
			animation:fadein 3s;

  }
      #E,.fadein {

	-webkit-animation:fadein 3.5s;
			animation:fadein 3.5s;

  }
      #I,.fadein {

	-webkit-animation:fadein 4s;
			animation:fadein 4s;

  }
       #N,.fadein {

	-webkit-animation:fadein 4.5s;
			animation:fadein 4.5s;

  }
         #S2,.fadein {

	-webkit-animation:fadein 5s;
			animation:fadein 5s;

  }
           #A,.fadein {

	-webkit-animation:fadein 5.5s;
			animation:fadein 5.5S;

  }
@-webkit-keyframes fadein{
	0%{
	  opacity:0;
	}
	to{
	  opacity:1;
	}
  }
  
  @keyframes fadein{
	0%{
	  opacity:0;
	}
	to{
	  opacity:1;
	}
  }

  
        ]]>



</style>



</defs><title>sugeinsa logotipo</title><path id="S" class="cls-1" d="M154.92,219.73A21.29,21.29,0,0,0,169,224.87c3.9,0,6.29-1.35,6.29-3.21,0-2-3.31-2.69-7.55-3.45-7.27-1.28-17.45-3-17.45-12.62,0-6.54,6.28-12.38,17.58-12.38,7.08,0,13.23,1.87,17.93,5.43l-6.21,7.18a22.59,22.59,0,0,0-12.9-4c-3.31,0-4.76,1.17-4.76,2.8,0,1.87,3.37,2.51,7.61,3.39,7.28,1.34,17.33,3.27,17.33,12.44,0,7.83-6.55,13-18.38,13-8.93,0-15.14-2.45-19.57-6.19Z" transform="translate(-115.86 -163.51)"/><path id="U" class="cls-1" d="M192.15,193.8h11.57v22.83c0,4.61,3.1,7.94,9.32,7.94s9.26-3.33,9.26-7.94V193.8h11.51v23.13c0,9.69-6.68,16.52-20.76,16.52s-20.89-6.89-20.89-16.47Z" transform="translate(-115.86 -163.51)"/><path id="G" class="cls-2" d="M263.37,193.15c9.85,0,15.8,4.61,18.84,9.46L272.69,207a11.2,11.2,0,0,0-9.32-5c-7.21,0-12.3,4.91-12.3,11.27s5.09,11.27,12.3,11.27a15.21,15.21,0,0,0,8.13-2.34v-3h-9.92v-8.82h21.3v15.48a27.06,27.06,0,0,1-19.51,7.59c-13.16,0-23.87-7.77-23.87-20.15s10.71-20.15,23.87-20.15" transform="translate(-115.86 -163.51)"/><polygon id="E" class="cls-1" points="173.69 30.29 206.03 30.29 206.03 39.05 185.06 39.05 185.06 45.12 205.56 45.12 205.56 53.88 185.06 53.88 185.06 60.48 206.03 60.48 206.03 69.24 173.69 69.24 173.69 30.29"/><rect id="I" class="cls-1" x="212.63" y="30.29" width="11.37" height="38.95"/><polygon id="N" class="cls-1" points="243.32 46.7 243.32 69.24 231.94 69.24 231.94 30.29 243.64 30.29 261.5 51.72 261.5 30.29 272.94 30.29 272.94 69.24 261.96 69.24 243.32 46.7"/><path id="S2" class="cls-1" d="M399.57,219.73a21.32,21.32,0,0,0,14.09,5.14c3.89,0,6.29-1.35,6.29-3.21,0-2-3.31-2.69-7.54-3.45-7.28-1.28-17.47-3-17.47-12.62,0-6.54,6.29-12.38,17.59-12.38,7.09,0,13.23,1.87,17.92,5.43l-6.21,7.18a22.59,22.59,0,0,0-12.9-4c-3.3,0-4.75,1.17-4.75,2.8,0,1.87,3.36,2.51,7.6,3.39,7.27,1.34,17.32,3.27,17.32,12.44,0,7.83-6.54,13-18.38,13-8.93,0-15.15-2.45-19.57-6.19Z" transform="translate(-115.86 -163.51)"/><path id="A" class="cls-1" d="M464.32,227.14H446.93l-2.19,5.61H431.85l16.6-39h14.29l16.66,39h-12.9ZM450,218.39H461.2l-5.62-14.66Z" transform="translate(-115.86 -163.51)"/><path id="amarillo" class="cls-3" d="M479.42,238.7H166.51c-13.53-1.32-24-12.07-23.94-25,.1-14,12-25.15,26.74-25.09a28.34,28.34,0,0,1,13.3,3.32l7.59-10.4a.75.75,0,0,1-.33-.08,40.55,40.55,0,0,0-10.73-4.17,1.17,1.17,0,0,1-1-1.09c-.74-4.24-1.49-8.48-2.24-12.73H162.61q-1.14,6.41-2.26,12.8a1.12,1.12,0,0,1-1,1,39.19,39.19,0,0,0-10.71,4.2.84.84,0,0,1-1-.1c-3.52-2.38-7.08-4.74-10.59-7.14a1,1,0,0,0-1.49.14q-4,3.83-8.07,7.59c-.54.48-.58.83-.14,1.39,2.55,3.31,5.06,6.64,7.6,10a.73.73,0,0,1,.1,1,34.35,34.35,0,0,0-4.45,10,1.23,1.23,0,0,1-1.18,1c-4.5.68-9,1.4-13.52,2.1V220c4.5.71,9,1.42,13.52,2.11a1.23,1.23,0,0,1,1.18,1,35.84,35.84,0,0,0,4.41,10,.94.94,0,0,1,0,.89q-3.75,5-7.58,10c-.49.64-.42,1,.15,1.52q4.06,3.72,8,7.53a1,1,0,0,0,1.49.14q5.16-3.51,10.37-7h332V238.7Z" transform="translate(-115.86 -163.51)"/><path class="cls-1" d="M150.18,260.5a6,6,0,0,0,2.6.65c1.08,0,1.65-.45,1.65-1.12s-.49-1-1.74-1.46c-1.72-.6-2.85-1.55-2.85-3.06,0-1.77,1.48-3.12,3.92-3.12a6.35,6.35,0,0,1,2.65.52l-.52,1.89a4.93,4.93,0,0,0-2.17-.49c-1,0-1.51.46-1.51,1s.59,1,1.92,1.46c1.83.68,2.69,1.63,2.69,3.09,0,1.74-1.34,3.21-4.18,3.21a6.8,6.8,0,0,1-2.94-.63Z" transform="translate(-115.86 -163.51)"/><path class="cls-1" d="M161.73,252.55v6c0,1.78.68,2.69,1.88,2.69s1.91-.86,1.91-2.69v-6h2.34v5.81c0,3.2-1.62,4.72-4.32,4.72s-4.15-1.45-4.15-4.75v-5.78h2.35Z" transform="translate(-115.86 -163.51)"/><path class="cls-1" d="M179.63,259c0-1.25-.09-2.75-.09-4.26h0c-.32,1.32-.75,2.8-1.15,4l-1.26,4h-1.83l-1.11-4c-.34-1.21-.69-2.69-.94-4h0c-.06,1.4-.11,3-.18,4.29l-.18,3.94h-2.17l.66-10.37h3.12l1,3.46c.32,1.2.65,2.49.88,3.71h0c.29-1.2.65-2.57,1-3.72l1.11-3.45h3.06l.57,10.37h-2.29Z" transform="translate(-115.86 -163.51)"/><path class="cls-1" d="M187.21,252.55v10.37h-2.35V252.55Z" transform="translate(-115.86 -163.51)"/><path class="cls-1" d="M190.23,262.92V252.55H193l2.15,3.8a30.18,30.18,0,0,1,1.69,3.55h0a38.43,38.43,0,0,1-.2-4.32v-3h2.15v10.37h-2.46l-2.21-4a38.52,38.52,0,0,1-1.8-3.66h0c.06,1.37.09,2.83.09,4.52v3.12h-2.15Z" transform="translate(-115.86 -163.51)"/><path class="cls-1" d="M204.17,252.55v10.37h-2.35V252.55Z" transform="translate(-115.86 -163.51)"/><path class="cls-1" d="M207.26,260.5a6,6,0,0,0,2.6.65c1.08,0,1.65-.45,1.65-1.12s-.49-1-1.74-1.46c-1.72-.6-2.85-1.55-2.85-3.06,0-1.77,1.48-3.12,3.92-3.12a6.35,6.35,0,0,1,2.65.52L213,254.8a4.93,4.93,0,0,0-2.17-.49c-1,0-1.51.46-1.51,1s.58,1,1.92,1.46c1.83.68,2.69,1.63,2.69,3.09,0,1.74-1.34,3.21-4.18,3.21a6.8,6.8,0,0,1-2.94-.63Z" transform="translate(-115.86 -163.51)"/><path class="cls-1" d="M218.47,254.52h-2.78v-2h8v2h-2.83v8.4h-2.35Z" transform="translate(-115.86 -163.51)"/><path class="cls-1" d="M225.88,252.69a20.6,20.6,0,0,1,3.12-.21,5.29,5.29,0,0,1,3.35.82,2.63,2.63,0,0,1,1,2.17,2.75,2.75,0,0,1-1.83,2.55v0a2.61,2.61,0,0,1,1.38,1.94c.32,1.17.65,2.52.85,2.92h-2.4a13,13,0,0,1-.72-2.42c-.28-1.29-.72-1.65-1.68-1.66h-.71v4.08h-2.32V252.69Zm2.32,4.46h.92c1.17,0,1.86-.58,1.86-1.49s-.65-1.43-1.72-1.45a5.82,5.82,0,0,0-1.06.08v2.86Z" transform="translate(-115.86 -163.51)"/><path class="cls-1" d="M245.48,257.63c0,3.4-2.06,5.46-5.09,5.46s-4.88-2.32-4.88-5.27c0-3.11,2-5.43,5-5.43S245.48,254.77,245.48,257.63Zm-7.49.14c0,2,1,3.46,2.52,3.46s2.49-1.51,2.49-3.52c0-1.86-.89-3.46-2.51-3.46S238,255.75,238,257.77Z" transform="translate(-115.86 -163.51)"/><path class="cls-1" d="M248.07,260.5a6,6,0,0,0,2.6.65c1.08,0,1.65-.45,1.65-1.12s-.49-1-1.74-1.46c-1.72-.6-2.85-1.55-2.85-3.06,0-1.77,1.48-3.12,3.92-3.12a6.35,6.35,0,0,1,2.65.52l-.52,1.89a4.93,4.93,0,0,0-2.17-.49c-1,0-1.51.46-1.51,1s.59,1,1.92,1.46c1.83.68,2.69,1.63,2.69,3.09,0,1.74-1.34,3.21-4.18,3.21a6.8,6.8,0,0,1-2.94-.63Z" transform="translate(-115.86 -163.51)"/><path class="cls-1" d="M270,262.44a11.61,11.61,0,0,1-3.46.58,5.78,5.78,0,0,1-4.21-1.4,5,5,0,0,1-1.46-3.77c0-3.45,2.52-5.41,5.92-5.41a7.14,7.14,0,0,1,2.88.51l-.49,1.88a5.75,5.75,0,0,0-2.42-.45,3.38,3.38,0,1,0,1,6.6v-2.17h-1.6V257H270v5.46Z" transform="translate(-115.86 -163.51)"/><path class="cls-1" d="M279,258.53H275.2V261h4.26v1.92h-6.61V252.55h6.4v1.92h-4v2.15H279v1.91Z" transform="translate(-115.86 -163.51)"/><path class="cls-1" d="M282,262.92V252.55h2.74l2.15,3.8a30,30,0,0,1,1.69,3.55h0a38.43,38.43,0,0,1-.2-4.32v-3h2.15v10.37h-2.46l-2.21-4a38.52,38.52,0,0,1-1.8-3.66h0c.06,1.37.09,2.83.09,4.52v3.12H282Z" transform="translate(-115.86 -163.51)"/><path class="cls-1" d="M299.8,258.53H296V261h4.26v1.92h-6.61V252.55H300v1.92h-4v2.15h3.81Z" transform="translate(-115.86 -163.51)"/><path class="cls-1" d="M302.83,252.69a20.62,20.62,0,0,1,3.12-.21,5.29,5.29,0,0,1,3.35.82,2.63,2.63,0,0,1,1,2.17,2.75,2.75,0,0,1-1.83,2.55v0a2.61,2.61,0,0,1,1.38,1.94c.32,1.17.65,2.52.85,2.92h-2.4a13,13,0,0,1-.72-2.42c-.28-1.29-.72-1.65-1.68-1.66h-.71v4.08h-2.32V252.69Zm2.32,4.46h.92c1.17,0,1.86-.58,1.86-1.49s-.65-1.43-1.72-1.45a5.84,5.84,0,0,0-1.06.08v2.86Z" transform="translate(-115.86 -163.51)"/><path class="cls-1" d="M315.35,260.26l-.74,2.66h-2.43l3.17-10.37h3.08l3.21,10.37h-2.52l-.8-2.66ZM318,258.5l-.65-2.2c-.18-.62-.37-1.38-.52-2h0c-.15.62-.31,1.4-.48,2l-.61,2.2Z" transform="translate(-115.86 -163.51)"/><path class="cls-1" d="M324,252.55h2.35v8.4h4.12v2H324Z" transform="translate(-115.86 -163.51)"/><path class="cls-1" d="M339,258.53H335.2V261h4.26v1.92h-6.61V252.55h6.4v1.92h-4v2.15H339v1.91Z" transform="translate(-115.86 -163.51)"/><path class="cls-1" d="M342.12,260.5a6,6,0,0,0,2.6.65c1.08,0,1.65-.45,1.65-1.12s-.49-1-1.74-1.46c-1.72-.6-2.85-1.55-2.85-3.06,0-1.77,1.48-3.12,3.92-3.12a6.35,6.35,0,0,1,2.65.52l-.52,1.89a4.93,4.93,0,0,0-2.17-.49c-1,0-1.51.46-1.51,1s.58,1,1.92,1.46c1.83.68,2.69,1.63,2.69,3.09,0,1.74-1.34,3.21-4.18,3.21a6.8,6.8,0,0,1-2.94-.63Z" transform="translate(-115.86 -163.51)"/><path class="cls-1" d="M361.59,258.53h-3.81V261H362v1.92h-6.61V252.55h6.4v1.92h-4v2.15h3.81v1.91Z" transform="translate(-115.86 -163.51)"/><path class="cls-1" d="M371.06,252.55v10.37h-2.35V252.55Z" transform="translate(-115.86 -163.51)"/><path class="cls-1" d="M374.08,262.92V252.55h2.74l2.15,3.8a30.18,30.18,0,0,1,1.69,3.55h0a38.43,38.43,0,0,1-.2-4.32v-3h2.15v10.37H380.2l-2.21-4a38.52,38.52,0,0,1-1.8-3.66h0c.06,1.37.09,2.83.09,4.52v3.12h-2.15Z" transform="translate(-115.86 -163.51)"/><path class="cls-1" d="M385.67,252.69a21,21,0,0,1,3.17-.21,6.67,6.67,0,0,1,4.24,1.11,4.58,4.58,0,0,1,1.75,3.91,5.26,5.26,0,0,1-1.72,4.2,7.44,7.44,0,0,1-4.78,1.34,20.47,20.47,0,0,1-2.66-.15Zm2.35,8.46a4.33,4.33,0,0,0,.82,0c2.12,0,3.51-1.15,3.51-3.63a3,3,0,0,0-3.26-3.29,4.91,4.91,0,0,0-1.06.09v6.78Z" transform="translate(-115.86 -163.51)"/><path class="cls-1" d="M399.69,252.55v6c0,1.78.68,2.69,1.88,2.69s1.91-.86,1.91-2.69v-6h2.34v5.81c0,3.2-1.61,4.72-4.32,4.72s-4.15-1.45-4.15-4.75v-5.78h2.35Z" transform="translate(-115.86 -163.51)"/><path class="cls-1" d="M408.9,260.5a6,6,0,0,0,2.6.65c1.08,0,1.65-.45,1.65-1.12s-.49-1-1.74-1.46c-1.72-.6-2.85-1.55-2.85-3.06,0-1.77,1.48-3.12,3.92-3.12a6.35,6.35,0,0,1,2.65.52l-.52,1.89a4.93,4.93,0,0,0-2.17-.49c-1,0-1.51.46-1.51,1s.58,1,1.92,1.46c1.83.68,2.69,1.63,2.69,3.09,0,1.74-1.34,3.21-4.18,3.21a6.8,6.8,0,0,1-2.94-.63Z" transform="translate(-115.86 -163.51)"/><path class="cls-1" d="M420.12,254.52h-2.78v-2h8v2h-2.83v8.4h-2.35Z" transform="translate(-115.86 -163.51)"/><path class="cls-1" d="M427.53,252.69a20.6,20.6,0,0,1,3.12-.21,5.29,5.29,0,0,1,3.35.82,2.63,2.63,0,0,1,1,2.17,2.75,2.75,0,0,1-1.83,2.55v0a2.61,2.61,0,0,1,1.39,1.94c.32,1.17.65,2.52.85,2.92H433a13,13,0,0,1-.72-2.42c-.28-1.29-.72-1.65-1.68-1.66h-.71v4.08h-2.32V252.69Zm2.32,4.46h.92c1.17,0,1.86-.58,1.86-1.49s-.65-1.43-1.72-1.45a5.83,5.83,0,0,0-1.06.08v2.86Z" transform="translate(-115.86 -163.51)"/><path class="cls-1" d="M440,252.55v10.37h-2.35V252.55Z" transform="translate(-115.86 -163.51)"/><path class="cls-1" d="M445.41,260.26l-.74,2.66h-2.43l3.17-10.37h3.08l3.21,10.37h-2.52l-.8-2.66ZM448,258.5l-.65-2.2c-.18-.62-.37-1.38-.52-2h0c-.15.62-.31,1.4-.48,2l-.61,2.2Z" transform="translate(-115.86 -163.51)"/><path class="cls-1" d="M454.07,252.55h2.35v8.4h4.12v2h-6.48Z" transform="translate(-115.86 -163.51)"/><path class="cls-1" d="M469.08,258.53h-3.81V261h4.26v1.92h-6.61V252.55h6.4v1.92h-4v2.15h3.81Z" transform="translate(-115.86 -163.51)"/><path class="cls-1" d="M472.18,260.5a6,6,0,0,0,2.6.65c1.08,0,1.65-.45,1.65-1.12s-.49-1-1.74-1.46c-1.72-.6-2.85-1.55-2.85-3.06,0-1.77,1.48-3.12,3.92-3.12a6.35,6.35,0,0,1,2.65.52l-.52,1.89a4.93,4.93,0,0,0-2.17-.49c-1,0-1.51.46-1.51,1s.58,1,1.92,1.46c1.83.68,2.69,1.63,2.69,3.09,0,1.74-1.34,3.21-4.18,3.21a6.8,6.8,0,0,1-2.94-.63Z" transform="translate(-115.86 -163.51)"/></svg>