<svg id="Capa_1" data-name="Capa 1" 
  xmlns="http://www.w3.org/2000/svg" viewBox="0 0 239 370.1">
  <defs>
    <style>.cls-1{fill:#455a64;}.cls-2{fill:#ffc107;}</style>
  </defs>
  <title>sdfdsf</title>
  <path class="cls-1" d="M246.5,67.88C180.6,67.88,127,119.77,127,183.54a112.12,112.12,0,0,0,24.62,70.39c19.17,24.17,23.18,52.55,23.18,72.12v19.41H318.2V326.05c0-19.57,4-48,23.21-72.12A112,112,0,0,0,366,183.54C366,119.77,312.39,67.88,246.5,67.88Zm0,127.22c26.36,0,47.8,18.16,47.8,40.48,0,18.81-15.3,34.51-35.85,39v13a12,12,0,0,1-23.9,0v-13c-20.55-4.53-35.85-20.24-35.85-39a12,12,0,0,1,23.9,0c0,9.41,10.95,17.35,23.9,17.35s23.9-7.93,23.9-17.35-10.95-17.35-23.9-17.35c-26.36,0-47.8-18.16-47.8-40.48,0-18.81,15.3-34.51,35.85-39v-13a12,12,0,0,1,23.9,0v13c20.55,4.53,35.85,20.24,35.85,39a12,12,0,0,1-23.9,0c0-9.41-10.95-17.35-23.9-17.35s-23.9,7.93-23.9,17.35S233.54,195.11,246.5,195.11Z" transform="translate(-127 -67.88)"/>
  <path class="cls-2" d="M174.8,368.59v23.13c0,25.51,21.44,46.26,47.8,46.26h47.8c26.36,0,47.8-20.75,47.8-46.26V368.59Z" transform="translate(-127 -67.88)"/>
</svg>
