<svg id="Capa_1" data-name="Capa 1" xmlns="http://www.w3.org/2000/svg" viewBox="0 0 453 448.11"><defs><style>.cls-1{fill:#ffc107;}.cls-2{fill:#455a64;}.cls-3{fill:#fafafa;}</style></defs><title>asdasd</title><path class="cls-1" d="M463.71,91a13.89,13.89,0,0,0-10.87-5.38H109.13a14,14,0,0,0-11.24,5.83,15.71,15.71,0,0,0-2.43,13l45.3,178.65a14.29,14.29,0,0,0,13.67,11.08,5.61,5.61,0,0,0,.71,0l270.1-14.34a14.47,14.47,0,0,0,13.22-12.22l28.31-164.31A15.44,15.44,0,0,0,463.71,91Z" transform="translate(-14 -25.89)"/><ellipse class="cls-2" cx="184.03" cy="403.3" rx="42.47" ry="44.81"/><ellipse class="cls-2" cx="353.9" cy="403.3" rx="42.47" ry="44.81"/><path class="cls-2" d="M396.21,354.51H169.72A14.27,14.27,0,0,1,156,343.42L83.25,55.76H28.16C20.34,55.76,14,49.07,14,40.83s6.34-14.94,14.16-14.94h66A14.27,14.27,0,0,1,107.8,37l72.79,287.66H396.21c7.81,0,14.16,6.69,14.16,14.94S404,354.51,396.21,354.51Z" transform="translate(-14 -25.89)"/><path class="cls-3" d="M368,208H272a16,16,0,0,1,0-32h96a16,16,0,0,1,0,32Z" transform="translate(-14 -25.89)"/></svg>