<svg id="Capa_1" data-name="Capa 1" 
  xmlns="http://www.w3.org/2000/svg" viewBox="0 0 430.48 413.99">
  <defs>
    <style>.cls-1{fill:#ffc107;}.cls-2{fill:#455a64;}</style>
  </defs>
  <title>asdasdsa</title>
  <path class="cls-1" d="M451.48,247.9l18.89-47.37a12.64,12.64,0,0,0-4.09-14.7l-40.95-31.93L417,103.79a13.2,13.2,0,0,0-11.19-10.74l-52.11-8-33.17-39.4a13.82,13.82,0,0,0-15.25-3.93L256,59.94,206.76,41.77a13.76,13.76,0,0,0-15.25,3.93l-33.2,39.4-52.11,8A13.23,13.23,0,0,0,95,103.82l-8.29,50.12-41,31.93a12.63,12.63,0,0,0-4.09,14.67L60.56,247.9,41.68,295.28a12.59,12.59,0,0,0,4.09,14.67l41,31.9L95,392a13.2,13.2,0,0,0,11.17,10.76l52.11,8,33.2,39.38A13.73,13.73,0,0,0,206.79,454L256,435.87,305.28,454a14,14,0,0,0,4.82.85,13.62,13.62,0,0,0,10.47-4.81l33.17-39.38,52.11-8A13.23,13.23,0,0,0,417,392l8.29-50.12,40.95-31.9a12.6,12.6,0,0,0,4.09-14.67Z" transform="translate(-40.78 -40.89)"/>
  <path class="cls-2" d="M318,279.52c0-28.61-27.8-51.88-62-51.88-16.8,0-31-10.17-31-22.23s14.2-22.23,31-22.23c8.43,0,16.3,2.49,22.16,7.06A16,16,0,0,0,300,188.1a14.33,14.33,0,0,0-2.23-20.84,64.66,64.66,0,0,0-26.22-11.86V138.71c0-8.18-6.94-14.82-15.5-14.82s-15.5,6.64-15.5,14.82v16.66c-26.66,5.81-46.49,25.94-46.49,50,0,28.61,27.8,51.88,62,51.88,16.8,0,31,10.17,31,22.23s-14.2,22.23-31,22.23c-8.43,0-16.3-2.49-22.13-7a16,16,0,0,0-21.79,2.13,14.38,14.38,0,0,0,2.23,20.84,65.47,65.47,0,0,0,26.19,11.83v16.69c0,8.18,6.94,14.82,15.5,14.82s15.5-6.64,15.5-14.82V329.56C298.16,323.75,318,303.62,318,279.52Z" transform="translate(-40.78 -40.89)"/>
</svg>
