<svg id="Capa_1" data-name="Capa 1" xmlns="http://www.w3.org/2000/svg" viewBox="0 0 394.66 319.35"><defs><style>.cls-1{fill:#455a64;}.cls-2{fill:#fafafa;}.cls-3{fill:#ffc107;}.cls-4{fill:#0b0b0d;}</style></defs><title>asdsad</title><path class="cls-1" d="M446,304.51l-35.27-63a11.59,11.59,0,0,0-10.09-6.13H318.38c-6.49,0-11.76,5.65-11.76,12.61V374c0,7,5.27,12.61,11.76,12.61H435.94c6.49,0,11.76-5.65,11.76-12.61V311A13.1,13.1,0,0,0,446,304.51Z" transform="translate(-53.03 -95.11)"/><polygon class="cls-2" points="305.78 165.45 344.18 165.45 371.01 215.88 305.78 215.88 305.78 165.45"/><path class="cls-3" d="M320.74,201.91H105.23a11.77,11.77,0,0,0-12,11.54V375.08a11.77,11.77,0,0,0,12,11.54H332.72V213.46A11.77,11.77,0,0,0,320.74,201.91Z" transform="translate(-53.03 -95.11)"/><ellipse class="cls-2" cx="344.92" cy="278.9" rx="26.09" ry="25.21"/><path class="cls-4" d="M398,411.83c-21.58,0-39.14-17-39.14-37.82S376.37,336.2,398,336.2s39.14,17,39.14,37.82S419.53,411.83,398,411.83Zm0-50.42A12.61,12.61,0,1,0,411,374,12.87,12.87,0,0,0,398,361.41Z" transform="translate(-53.03 -95.11)"/><path class="cls-1" d="M337.61,386.62H105.47A12.42,12.42,0,0,1,93.25,374V336.2H337.61Z" transform="translate(-53.03 -95.11)"/><ellipse class="cls-2" cx="110.08" cy="278.9" rx="26.09" ry="25.21"/><path class="cls-4" d="M173.81,414.46c-21.58,0-39.14-17-39.14-37.82s17.56-37.82,39.14-37.82,39.14,17,39.14,37.82S195.39,414.46,173.81,414.46Zm0-50.42a12.61,12.61,0,1,0,13,12.61A12.85,12.85,0,0,0,173.81,364Z" transform="translate(-53.03 -95.11)"/><path class="cls-2" d="M137,285.78c60.28,0,109.52-44.27,116.09-100.85H84.83a12.84,12.84,0,0,0-13,12.61v69A119.65,119.65,0,0,0,137,285.78Z" transform="translate(-53.03 -95.11)"/><ellipse class="cls-1" cx="91.33" cy="88.24" rx="91.33" ry="88.24"/><path class="cls-2" d="M163.92,217.24a13.34,13.34,0,0,1-9.24-3.68l-26.09-25.21a12.48,12.48,0,0,1-3.81-8.92V141.6a13.05,13.05,0,0,1,26.09,0v32.6l22.28,21.53a12.31,12.31,0,0,1,0,17.82A13.34,13.34,0,0,1,163.92,217.24Z" transform="translate(-53.03 -95.11)"/><path d="M207.07,316.28a8.59,8.59,0,0,0,5.07,1.55c1.4,0,2.26-.41,2.26-1s-1.19-.81-2.72-1c-2.62-.39-6.28-.91-6.28-3.8,0-2,2.26-3.73,6.33-3.73a12,12,0,0,1,6.45,1.64l-2.24,2.16a9.28,9.28,0,0,0-4.64-1.21c-1.19,0-1.71.35-1.71.84s1.21.76,2.74,1c2.62.4,6.24,1,6.24,3.75,0,2.36-2.36,3.92-6.62,3.92a11.87,11.87,0,0,1-7-1.86Z" transform="translate(-53.03 -95.11)"/><path d="M220.47,308.47h4.16v6.88c0,1.39,1.12,2.39,3.36,2.39s3.33-1,3.33-2.39v-6.88h4.14v7c0,2.92-2.4,5-7.48,5s-7.52-2.08-7.52-5Z" transform="translate(-53.03 -95.11)"/><path d="M246.11,308.27c3.55,0,5.69,1.39,6.78,2.85l-3.43,1.32a4.27,4.27,0,0,0-3.36-1.5c-2.6,0-4.43,1.48-4.43,3.4s1.83,3.39,4.43,3.39A6.27,6.27,0,0,0,249,317v-.91h-3.57v-2.66h7.67v4.66a10.83,10.83,0,0,1-7,2.29c-4.74,0-8.59-2.34-8.59-6.07s3.85-6.07,8.59-6.07" transform="translate(-53.03 -95.11)"/><polygon points="202.5 213.36 214.15 213.36 214.15 215.99 206.6 215.99 206.6 217.82 213.98 217.82 213.98 220.46 206.6 220.46 206.6 222.45 214.15 222.45 214.15 225.09 202.5 225.09 202.5 213.36"/><rect x="216.52" y="213.36" width="4.09" height="11.73"/><polygon points="227.57 218.3 227.57 225.09 223.47 225.09 223.47 213.36 227.69 213.36 234.11 219.81 234.11 213.36 238.23 213.36 238.23 225.09 234.28 225.09 227.57 218.3"/><path d="M295.14,316.28a8.6,8.6,0,0,0,5.07,1.55c1.4,0,2.26-.41,2.26-1s-1.19-.81-2.71-1c-2.62-.39-6.29-.91-6.29-3.8,0-2,2.26-3.73,6.33-3.73a12,12,0,0,1,6.45,1.64L304,312.09a9.28,9.28,0,0,0-4.64-1.21c-1.19,0-1.71.35-1.71.84s1.21.76,2.74,1c2.62.4,6.24,1,6.24,3.75,0,2.36-2.36,3.92-6.62,3.92a11.87,11.87,0,0,1-7-1.86Z" transform="translate(-53.03 -95.11)"/><path d="M318.45,318.51h-6.26l-.79,1.69h-4.64l6-11.73h5.14l6,11.73h-4.65Zm-5.17-2.64h4l-2-4.42Z" transform="translate(-53.03 -95.11)"/><path class="cls-2" d="M323.88,322H211.24c-4.87-.4-8.65-3.63-8.62-7.52,0-4.2,4.34-7.57,9.63-7.56a11.82,11.82,0,0,1,4.79,1l2.73-3.13-.12,0a16.41,16.41,0,0,0-3.86-1.26c-.24,0-.33-.15-.36-.33-.26-1.28-.54-2.55-.81-3.83h-4.79q-.41,1.93-.81,3.86c0,.17-.14.26-.36.3a15.84,15.84,0,0,0-3.86,1.27.35.35,0,0,1-.38,0l-3.81-2.15a.4.4,0,0,0-.53,0q-1.44,1.15-2.91,2.29c-.19.14-.21.25-.05.42.92,1,1.82,2,2.73,3,.09.1.13.17,0,.3a9.6,9.6,0,0,0-1.6,3c-.06.19-.18.28-.42.31l-4.87.63v3.77l4.87.64c.25,0,.36.11.42.31a10,10,0,0,0,1.59,3,.24.24,0,0,1,0,.27c-.9,1-1.81,2-2.73,3-.17.19-.15.3.06.46q1.46,1.12,2.88,2.27a.39.39,0,0,0,.53,0l3.73-2.1H323.88V322Z" transform="translate(-53.03 -95.11)"/><path d="M205.36,328.56a2.5,2.5,0,0,0,.94.19c.39,0,.59-.13.59-.34s-.18-.31-.63-.44c-.62-.18-1-.47-1-.92s.53-.94,1.41-.94a2.67,2.67,0,0,1,1,.16l-.19.57a2.06,2.06,0,0,0-.78-.15c-.37,0-.54.14-.54.3s.21.29.69.44c.66.2,1,.49,1,.93s-.48,1-1.51,1a2.85,2.85,0,0,1-1.06-.19Z" transform="translate(-53.03 -95.11)"/><path d="M209.52,326.16V328c0,.54.24.81.68.81s.69-.26.69-.81v-1.8h.84v1.75c0,1-.58,1.42-1.56,1.42s-1.49-.44-1.49-1.43v-1.74h.85Z" transform="translate(-53.03 -95.11)"/><path d="M216,328.09c0-.38,0-.83,0-1.28h0c-.12.4-.27.84-.42,1.21l-.45,1.22h-.66L214,328a12.27,12.27,0,0,1-.34-1.22h0c0,.42,0,.9-.07,1.29l-.07,1.19h-.78l.24-3.12h1.12l.37,1c.12.36.23.75.32,1.12h0c.11-.36.23-.77.35-1.12l.4-1h1.1l.2,3.12H216Z" transform="translate(-53.03 -95.11)"/><path d="M218.69,326.16v3.12h-.85v-3.12Z" transform="translate(-53.03 -95.11)"/><path d="M219.78,329.29v-3.12h1l.78,1.14a8.53,8.53,0,0,1,.61,1.07h0a9.7,9.7,0,0,1-.07-1.3v-.91h.78v3.12H222l-.8-1.2a11,11,0,0,1-.65-1.1h0c0,.41,0,.85,0,1.36v.94h-.77Z" transform="translate(-53.03 -95.11)"/><path d="M224.8,326.16v3.12H224v-3.12Z" transform="translate(-53.03 -95.11)"/><path d="M225.91,328.56a2.49,2.49,0,0,0,.94.19c.39,0,.59-.13.59-.34s-.18-.31-.63-.44c-.62-.18-1-.47-1-.92s.53-.94,1.41-.94a2.67,2.67,0,0,1,1,.16l-.19.57a2.06,2.06,0,0,0-.78-.15c-.37,0-.54.14-.54.3s.21.29.69.44c.66.2,1,.49,1,.93s-.48,1-1.51,1a2.85,2.85,0,0,1-1.06-.19Z" transform="translate(-53.03 -95.11)"/><path d="M229.95,326.76h-1v-.59h2.87v.59h-1v2.53h-.85Z" transform="translate(-53.03 -95.11)"/><path d="M232.62,326.21a8.84,8.84,0,0,1,1.12-.06,2.19,2.19,0,0,1,1.21.25.74.74,0,0,1,.34.65.86.86,0,0,1-.66.77h0a.81.81,0,0,1,.5.58,8.23,8.23,0,0,0,.3.88h-.86a3.47,3.47,0,0,1-.26-.73c-.1-.39-.26-.5-.6-.5h-.25v1.23h-.84v-3.08Zm.84,1.34h.33c.42,0,.67-.18.67-.45s-.23-.43-.62-.44a2.5,2.5,0,0,0-.38,0v.86Z" transform="translate(-53.03 -95.11)"/><path d="M239.67,327.69a1.63,1.63,0,0,1-1.83,1.64,1.59,1.59,0,0,1-1.76-1.59,1.65,1.65,0,0,1,1.82-1.64A1.59,1.59,0,0,1,239.67,327.69Zm-2.7,0a.92.92,0,0,0,.91,1c.57,0,.9-.45.9-1.06a.94.94,0,0,0-.9-1C237.3,326.67,237,327.13,237,327.73Z" transform="translate(-53.03 -95.11)"/><path d="M240.6,328.56a2.5,2.5,0,0,0,.94.19c.39,0,.59-.13.59-.34s-.18-.31-.63-.44c-.62-.18-1-.47-1-.92s.53-.94,1.41-.94a2.67,2.67,0,0,1,1,.16l-.19.57a2.06,2.06,0,0,0-.78-.15c-.37,0-.54.14-.54.3s.21.29.69.44c.66.2,1,.49,1,.93s-.48,1-1.51,1a2.85,2.85,0,0,1-1.06-.19Z" transform="translate(-53.03 -95.11)"/><path d="M248.51,329.14a4.92,4.92,0,0,1-1.25.18,2.34,2.34,0,0,1-1.52-.42,1.39,1.39,0,0,1-.53-1.14c0-1,.91-1.63,2.13-1.63a3,3,0,0,1,1,.15l-.18.56a2.42,2.42,0,0,0-.87-.13c-.7,0-1.23.33-1.23,1a1,1,0,0,0,1.17,1,1.33,1.33,0,0,0,.42,0V328h-.58v-.55h1.39v1.64Z" transform="translate(-53.03 -95.11)"/><path d="M251.74,328h-1.37v.74h1.53v.58h-2.38v-3.12h2.3v.58h-1.46v.65h1.37V328Z" transform="translate(-53.03 -95.11)"/><path d="M252.83,329.29v-3.12h1l.78,1.14a8.48,8.48,0,0,1,.61,1.07h0a9.7,9.7,0,0,1-.07-1.3v-.91h.78v3.12H255l-.8-1.2a11,11,0,0,1-.65-1.1h0c0,.41,0,.85,0,1.36v.94h-.77Z" transform="translate(-53.03 -95.11)"/><path d="M259.23,328h-1.37v.74h1.53v.58H257v-3.12h2.3v.58h-1.46v.65h1.37Z" transform="translate(-53.03 -95.11)"/><path d="M260.32,326.21a8.85,8.85,0,0,1,1.12-.06,2.19,2.19,0,0,1,1.21.25.74.74,0,0,1,.34.65.86.86,0,0,1-.66.77h0a.81.81,0,0,1,.5.58,8.23,8.23,0,0,0,.3.88h-.86a3.46,3.46,0,0,1-.26-.73c-.1-.39-.26-.5-.6-.5h-.25v1.23h-.84v-3.08Zm.84,1.34h.33c.42,0,.67-.18.67-.45s-.23-.43-.62-.44a2.5,2.5,0,0,0-.38,0v.86Z" transform="translate(-53.03 -95.11)"/><path d="M264.82,328.48l-.27.8h-.87l1.14-3.12h1.11l1.16,3.12h-.91l-.29-.8Zm.95-.53-.23-.66c-.07-.19-.13-.42-.19-.6h0c-.06.19-.11.42-.17.6l-.22.66Z" transform="translate(-53.03 -95.11)"/><path d="M267.94,326.16h.85v2.53h1.48v.59h-2.33Z" transform="translate(-53.03 -95.11)"/><path d="M273.34,328H272v.74h1.53v.58h-2.38v-3.12h2.3v.58H272v.65h1.37V328Z" transform="translate(-53.03 -95.11)"/><path d="M274.46,328.56a2.5,2.5,0,0,0,.94.19c.39,0,.59-.13.59-.34s-.18-.31-.63-.44c-.62-.18-1-.47-1-.92s.53-.94,1.41-.94a2.67,2.67,0,0,1,1,.16l-.19.57a2.06,2.06,0,0,0-.78-.15c-.37,0-.54.14-.54.3s.21.29.69.44c.66.2,1,.49,1,.93s-.48,1-1.51,1a2.85,2.85,0,0,1-1.06-.19Z" transform="translate(-53.03 -95.11)"/><path d="M281.47,328h-1.37v.74h1.53v.58h-2.38v-3.12h2.3v.58h-1.46v.65h1.37V328Z" transform="translate(-53.03 -95.11)"/><path d="M284.88,326.16v3.12H284v-3.12Z" transform="translate(-53.03 -95.11)"/><path d="M286,329.29v-3.12h1l.78,1.14a8.53,8.53,0,0,1,.61,1.07h0a9.7,9.7,0,0,1-.07-1.3v-.91h.78v3.12h-.89l-.8-1.2a11,11,0,0,1-.65-1.1h0c0,.41,0,.85,0,1.36v.94H286Z" transform="translate(-53.03 -95.11)"/><path d="M290.14,326.21a9,9,0,0,1,1.14-.06,2.76,2.76,0,0,1,1.53.33,1.31,1.31,0,0,1,.63,1.18,1.48,1.48,0,0,1-.62,1.26,3.07,3.07,0,0,1-1.72.4,8.79,8.79,0,0,1-1,0Zm.85,2.55a1.86,1.86,0,0,0,.29,0c.76,0,1.26-.35,1.26-1.09s-.45-1-1.17-1a2.1,2.1,0,0,0-.38,0v2Z" transform="translate(-53.03 -95.11)"/><path d="M295.18,326.16V328c0,.54.24.81.68.81s.69-.26.69-.81v-1.8h.84v1.75c0,1-.58,1.42-1.56,1.42s-1.49-.44-1.49-1.43v-1.74h.85Z" transform="translate(-53.03 -95.11)"/><path d="M298.5,328.56a2.5,2.5,0,0,0,.94.19c.39,0,.59-.13.59-.34s-.18-.31-.63-.44c-.62-.18-1-.47-1-.92s.53-.94,1.41-.94a2.67,2.67,0,0,1,1,.16l-.19.57a2.06,2.06,0,0,0-.78-.15c-.37,0-.54.14-.54.3s.21.29.69.44c.66.2,1,.49,1,.93s-.48,1-1.51,1a2.85,2.85,0,0,1-1.06-.19Z" transform="translate(-53.03 -95.11)"/><path d="M302.54,326.76h-1v-.59h2.87v.59h-1v2.53h-.85Z" transform="translate(-53.03 -95.11)"/><path d="M305.2,326.21a8.84,8.84,0,0,1,1.12-.06,2.19,2.19,0,0,1,1.21.25.74.74,0,0,1,.34.65.86.86,0,0,1-.66.77h0a.81.81,0,0,1,.5.58,8.23,8.23,0,0,0,.3.88h-.86a3.46,3.46,0,0,1-.26-.73c-.1-.39-.26-.5-.6-.5H306v1.23h-.84v-3.08Zm.84,1.34h.33c.42,0,.67-.18.67-.45s-.23-.43-.62-.44a2.5,2.5,0,0,0-.38,0v.86Z" transform="translate(-53.03 -95.11)"/><path d="M309.69,326.16v3.12h-.85v-3.12Z" transform="translate(-53.03 -95.11)"/><path d="M311.64,328.48l-.27.8h-.87l1.14-3.12h1.11l1.16,3.12H313l-.29-.8Zm.95-.53-.23-.66c-.07-.19-.13-.42-.19-.6h0c-.06.19-.11.42-.17.6l-.22.66Z" transform="translate(-53.03 -95.11)"/><path d="M314.76,326.16h.85v2.53h1.48v.59h-2.33Z" transform="translate(-53.03 -95.11)"/><path d="M320.16,328h-1.37v.74h1.53v.58h-2.38v-3.12h2.3v.58h-1.46v.65h1.37Z" transform="translate(-53.03 -95.11)"/><path d="M321.28,328.56a2.5,2.5,0,0,0,.94.19c.39,0,.59-.13.59-.34s-.18-.31-.63-.44c-.62-.18-1-.47-1-.92s.53-.94,1.41-.94a2.67,2.67,0,0,1,1,.16l-.19.57a2.06,2.06,0,0,0-.78-.15c-.37,0-.54.14-.54.3s.21.29.69.44c.66.2,1,.49,1,.93s-.48,1-1.51,1a2.85,2.85,0,0,1-1.06-.19Z" transform="translate(-53.03 -95.11)"/></svg>